<svg aria-hidden="true" style="position: absolute; width: 0; height: 0; overflow: hidden;" version="1.1" xmlns="http://www.w3.org/2000/svg" xmlns:xlink="http://www.w3.org/1999/xlink">
<defs>



<symbol id="icon-assistant" viewBox="0 0 64 64">
<title>assistant</title>
<path d="m51.2 38.7-10.2-3.4v-3.1c1.3-1.6 2.2-3.4 2.7-5.4l3.1-2.3c.8-.6 1.2-1.5 1.2-2.4v-1c0-1.7-1.3-3-3-3h-1v-5.9l1.3-4.7c.5-1.6-.5-3.3-2.1-3.7-.1 0-.2-.1-.4-.1l-10.8-1.7-10.9 1.7c-1.6.3-2.8 1.8-2.5 3.4 0 .1 0 .2.1.4l1.3 4.7v5.8h-1c-1.7 0-3 1.3-3 3v1c0 .9.4 1.8 1.2 2.4l3.1 2.3c.5 2 1.4 3.9 2.7 5.4v3.1l-10.2 3.4c-2.9 1-4.8 3.6-4.8 6.6v16.8h48v-16.7c0-3-1.9-5.7-4.8-6.6zm-26.2-4.6c.1.1.2.2.4.3l.8.6c1.4 1 3.1 1.7 4.9 1.9v4.6l-6-3v-4.4zm8 2.7c1.8-.2 3.4-.8 4.9-1.9l.8-.6c.1-.1.2-.2.4-.3v4.3l-6 3zm9-23.8v2h-20v-2zm-1 4c-4.4 5-12.1 5.4-17 .9-.3-.3-.6-.6-.9-.9zm4 3c.6 0 1 .4 1 1v1c0 .3-.1.6-.4.8l-1.6 1.2v-.1-3.9zm-24.3-13.9c.2-.2.4-.4.7-.4l10.6-1.7 10.6 1.6c.5.1.9.6.8 1.1v.1l-1.2 4.2h-20.4l-1.2-4.1c-.1-.3-.1-.6.1-.8zm-2.3 16.7c-.3-.2-.4-.5-.4-.8v-1c0-.6.4-1 1-1h1v3.9.1zm3.6-4c5.4 5.5 14.3 5.6 19.8.2.1-.1.1-.1.2-.2v5.1c0 3.5-1.7 6.8-4.5 8.9l-.8.6c-2.8 2-6.6 2-9.4 0l-.8-.6c-2.8-2.1-4.5-5.4-4.5-8.9zm-12 26.5c0-2.2 1.4-4.1 3.4-4.7l9.6-3.2v2.2l7 3.5-2 1.3v15.6h-8v-9h-2v9h-8zm44 14.7h-8v-9h-2v9h-14v-14.5l2.5-1.7 8.5-4.2v-2.2l9.6 3.2c2 .7 3.4 2.6 3.4 4.7z"/><path d="m32 52h2v2h-2z"/><path d="m32 56h2v2h-2z"/><path d="m32 48h2v2h-2z"/><path d="m36 47h8v2h-8z"/>
</symbol>

<symbol id="icon-guide" viewBox="0 0 512 512.00023">
<title>guide</title>
<path d="m504.3125 129.089844c-.058594-.03125-170.398438-63.980469-170.464844-64.007813 15.699219-35.476562-17.25-74.207031-55.34375-63.164062-4.023437 1.171875-6.335937 5.375-5.164062 9.394531 1.160156 4.011719 5.363281 6.335938 9.386718 5.164062 19.910157-5.800781 39.898438 9.21875 39.898438 29.945313 0 31.140625-40.050781 42.503906-57.015625 17.460937-6.785156-10.011718-6.953125-22.683593-1.453125-32.574218 2.03125-3.660156.707031-8.265625-2.953125-10.304688-3.65625-2.03125-8.273437-.707031-10.304687 2.949219-11.515626 20.738281-5.519532 47.296875 14.710937 60.933594v39.664062c0 4.183594 3.394531 7.578125 7.578125 7.578125 4.191406 0 7.578125-3.394531 7.578125-7.578125v-33.027343c7.210937 1.726562 15.246094 1.71875 22.964844-.414063v225.460937c-3.308594 0-15.320313-.023437-22.964844-.023437v-161.683594c0-4.191406-3.386719-7.578125-7.578125-7.578125-4.183594 0-7.578125 3.386719-7.578125 7.578125v161.683594c-13.71875 0-26.015625 2.378906-38.917969 9.773437-3.375-6.710937-10.324218-11.328124-18.335937-11.328124h-37.605469c-11.308594 0-20.511719 9.195312-20.511719 20.5v12.125h-127.40625c-12.597656 0-22.832031 10.246093-22.832031 22.832031v92.042969c0 12.601562 10.234375 22.835937 22.832031 22.835937h127.40625v6.160156c0 11.308594 9.203125 20.511719 20.511719 20.511719h37.605469c6.878906 0 12.980469-3.40625 16.699219-8.628906 17.816406 9.070312 17.789062 7.0625 145.5625 7.0625 22.558593 0 33.433593-27.605469 17.953124-43.332032 9.667969-9.820312 9.683594-25.925781.039063-35.765624 9.636719-9.855469 9.625-25.917969 0-35.738282 14.664063-14.960937 5.648437-40.847656-15.226563-43.140625 3.4375-15.234375-9.746093-35.886719-31.25-35.886719h-23.246093v-96.882812l61.972656-23.269531c3.921875-1.464844 5.902344-5.828125 4.425781-9.75-1.464844-3.917969-5.839844-5.898438-9.75-4.433594l-56.648437 21.265625v-119.753906c2.300781-1.699219 4.433593-3.609375 6.382812-5.691406l163.878907 61.523437-85.242188 32.007813c-3.910156 1.464843-5.902344 5.839843-4.425781 9.757812 1.464843 3.910156 5.839843 5.902344 9.761719 4.425781.117187-.042969 94.949218-35.640625 95.0625-35.695312 9.496093-3.734375 9.523437-17.214844.007812-20.984375zm-354.074219 341.082031h-127.40625c-4.230469 0-7.675781-3.445313-7.675781-7.679687v-92.042969c0-4.230469 3.445312-7.675781 7.675781-7.675781h127.40625zm62.175781 24.785156c-2.101562 2.519531-.726562 1.886719-41.664062 1.886719-2.953125 0-5.355469-2.402344-5.355469-5.355469 0-18.828125 0-149.675781 0-155.996093 0-2.949219 2.402344-5.34375 5.355469-5.34375h37.605469c2.703125 0 5.351562 2.160156 5.351562 5.605468 0 168.492188.558594 157.050782-1.292969 159.203125zm16.449219-6.789062v-38.113281c13.207031-2.128907 25.644531-6.796876 36.746094-13.496094 0 54.09375-.316406 53.160156.910156 58.71875-12.851562 0-23.960937 1.117187-37.65625-7.109375zm61.347657 7.109375h-7.699219c-2.328125-4.207032-1.746094-4.664063-1.746094-69.84375 2.695313-2.382813 5.273437-4.910156 7.707031-7.566406.859375 5.191406 3.316406 9.859374 6.851563 13.46875-9.753907 9.929687-9.519531 26.074218.039062 35.765624-7.625 7.730469-9.097656 19.128907-5.152343 28.175782zm80.40625 0c-5.894532 0-49.710938 0-57.296876 0-7 0-11.652343-6.878906-9.589843-13.496094 1.273437-4.09375 5.09375-7.0625 9.589843-7.0625h57.296876c5.535156 0 10.039062 4.503906 10.039062 10.042969 0 6.511719-4.851562 10.515625-10.039062 10.515625zm-1.40625-35.792969c-16.421876 0-39.289063 0-55.890626 0-6.894531 0-11.695312-6.761719-9.589843-13.511719 1.273437-4.089844 5.09375-7.0625 9.589843-7.0625h57.296876c12.710937 0 14.546874 20.574219-1.40625 20.574219zm-65.933594-46.265625c0-5.511719 4.480468-10.042969 10.042968-10.042969h57.296876c5.136718 0 10.039062 3.949219 10.039062 10.519531 0 5.546876-4.503906 10.050782-10.039062 10.050782-4.4375 0-5.878907 0-5.839844 0-7.175782 0-22.1875 0-51.457032 0-5.140624 0-10.042968-3.941406-10.042968-10.527344zm67.339844-45.757812c5.136718 0 10.039062 3.949218 10.039062 10.515624 0 5.539063-4.503906 10.042969-10.039062 10.042969-62.570313 0-59.167969.515625-62.378907-1.382812-2.132812-1.253907-3.761719-3.261719-4.507812-5.65625v-6.457031c2.523437-8.105469 10.789062-7.0625 15.15625-7.0625zm-28.484376-35.738282c15.742188 0 21.035157 20.570313 12.558594 20.570313h-7.910156c.132812 0 .261719 0 .382812.011719-37.148437 0-38.828124-.78125-45.789062 3.019531-12.425781 6.671875-16.359375 21.832031-10.808594 33.472656-12.421875 23.753906-35.226562 40.820313-61.703125 45.871094 0-26.511719 0-61.785157 0-91.730469 9.730469-7.0625 21.683594-11.234375 34.585938-11.234375 28.378906 0 78.546875.019531 78.683593.019531zm0 0"/>
</symbol>

<symbol id="icon-search" viewBox="0 0 32 32">
<title>search</title>
<path d="M31.008 27.231l-7.58-6.447c-0.784-0.705-1.622-1.029-2.299-0.998 1.789-2.096 2.87-4.815 2.87-7.787 0-6.627-5.373-12-12-12s-12 5.373-12 12 5.373 12 12 12c2.972 0 5.691-1.081 7.787-2.87-0.031 0.677 0.293 1.515 0.998 2.299l6.447 7.58c1.104 1.226 2.907 1.33 4.007 0.23s0.997-2.903-0.23-4.007zM12 20c-4.418 0-8-3.582-8-8s3.582-8 8-8 8 3.582 8 8-3.582 8-8 8z"></path>
</symbol>

<symbol id="icon-pricetags" viewBox="0 0 42 32">
<title>pricetags</title>
<path d="M40.5 0h-10c-0.691 0-1.574 0.376-2.047 0.87l-1.33 1.34c-0.194 0.196-0.192 0.513 0.004 0.707 0.194 0.194 0.513 0.193 0.707-0.003l1.334-1.346c0.285-0.297 0.92-0.568 1.332-0.568h10c0.275 0 0.5 0.224 0.5 0.5v10.049c0 0.411-0.271 1.046-0.574 1.337l-14.081 13.972c-0.201 0.191-0.535 0.186-0.73-0.008l-2.648-2.649c-0.195-0.195-0.512-0.195-0.707 0s-0.195 0.512 0 0.707l2.648 2.649c0.294 0.293 0.684 0.441 1.074 0.441 0.382 0 0.765-0.141 1.062-0.424l14.082-13.973c0.498-0.478 0.874-1.361 0.874-2.052v-10.049c0-0.827-0.673-1.5-1.5-1.5zM39.038 5c0-1.103-0.897-2-2-2s-2 0.897-2 2 0.897 2 2 2 2-0.897 2-2zM36.038 5c0-0.551 0.448-1 1-1s1 0.449 1 1-0.448 1-1 1-1-0.449-1-1zM16.462 4c-0.691 0-1.574 0.376-2.048 0.87l-13.993 14.131c-0.568 0.592-0.56 1.547 0.021 2.128l10.428 10.428c0.285 0.286 0.667 0.443 1.076 0.443 0.396 0 0.77-0.149 1.059-0.426l14.081-13.972c0.499-0.478 0.876-1.361 0.876-2.053v-10.049c0-0.827-0.673-1.5-1.5-1.5h-10zM27 5.5v10.049c0 0.412-0.309 1.046-0.612 1.337l-14.081 13.972c-0.195 0.185-0.54 0.181-0.729-0.008l-10.429-10.427c-0.195-0.196-0.199-0.53-0.013-0.723l13.994-14.132c0.285-0.297 0.92-0.568 1.332-0.568h10c0.275 0 0.538 0.224 0.538 0.5zM23 7c-1.103 0-2 0.897-2 2s0.897 2 2 2 2-0.897 2-2-0.897-2-2-2zM23 10c-0.552 0-1-0.449-1-1s0.448-1 1-1 1 0.449 1 1-0.448 1-1 1z"></path>
</symbol>

<symbol id="icon-clock" viewBox="0 0 32 32">
<title>clock</title>
<path d="M7.729 11.022c1.53-1.403 3.44-2.397 5.559-2.81-0.786-0.642-1.288-1.619-1.288-2.713 0-1.933 1.567-3.5 3.5-3.5s3.5 1.567 3.5 3.5c0 1.094-0.502 2.071-1.288 2.713v0c2.118 0.413 4.029 1.407 5.559 2.81v0l1.229-1.229-0.707-0.707 0.707-0.707 2.121 2.121-0.707 0.707-0.707-0.707-1.229 1.229c1.877 2.047 3.022 4.775 3.022 7.771 0 6.351-5.149 11.5-11.5 11.5s-11.5-5.149-11.5-11.5c0-2.996 1.146-5.724 3.022-7.771l-1.229-1.229-0.707 0.707-0.707-0.707 2.121-2.121 0.707 0.707-0.707 0.707 1.229 1.229zM16.147 18.146l3.119-3.119c0.191-0.191 0.514-0.198 0.71-0.002 0.19 0.19 0.194 0.513-0.002 0.71l-3.119 3.119c0.094 0.196 0.146 0.415 0.146 0.647 0 0.828-0.672 1.5-1.5 1.5-0.232 0-0.451-0.052-0.647-0.146l-1.119 1.119c-0.191 0.191-0.514 0.198-0.71 0.002-0.19-0.19-0.194-0.513 0.002-0.71l1.119-1.119c-0.094-0.196-0.146-0.415-0.146-0.647 0-0.828 0.672-1.5 1.5-1.5 0.232 0 0.451 0.052 0.647 0.146v0 0zM16 7.95c1.141-0.232 2-1.24 2-2.45 0-1.381-1.119-2.5-2.5-2.5s-2.5 1.119-2.5 2.5c0 1.209 0.859 2.218 2 2.45v-1.95h-1v-1h3v1h-1v1.95zM8.016 19.998h2.496c0.271 0 0.49-0.232 0.49-0.5 0-0.276-0.215-0.5-0.49-0.5h-2.495c0.247-3.743 3.24-6.735 6.983-6.981v2.493c0 0.271 0.232 0.49 0.5 0.49 0.276 0 0.5-0.215 0.5-0.49v-2.493c3.743 0.246 6.736 3.239 6.983 6.981h-2.495c-0.271 0-0.49 0.232-0.49 0.5 0 0.276 0.215 0.5 0.49 0.5h2.496c-0.245 3.745-3.239 6.739-6.984 6.986v-2.498c0-0.271-0.232-0.49-0.5-0.49-0.276 0-0.5 0.215-0.5 0.49v2.498c-3.745-0.246-6.738-3.241-6.984-6.986zM15.5 30c5.799 0 10.5-4.701 10.5-10.5s-4.701-10.5-10.5-10.5c-5.799 0-10.5 4.701-10.5 10.5s4.701 10.5 10.5 10.5v0zM15.5 28c4.694 0 8.5-3.806 8.5-8.5s-3.806-8.5-8.5-8.5c-4.694 0-8.5 3.806-8.5 8.5s3.806 8.5 8.5 8.5v0zM15.5 20c0.276 0 0.5-0.224 0.5-0.5s-0.224-0.5-0.5-0.5c-0.276 0-0.5 0.224-0.5 0.5s0.224 0.5 0.5 0.5v0z"></path>
</symbol>
  

<symbol id="icon-facebook" viewBox="0 0 32 32">
<title>facebook</title>
<path d="M29 0h-26c-1.65 0-3 1.35-3 3v26c0 1.65 1.35 3 3 3h13v-14h-4v-4h4v-2c0-3.306 2.694-6 6-6h4v4h-4c-1.1 0-2 0.9-2 2v2h6l-1 4h-5v14h9c1.65 0 3-1.35 3-3v-26c0-1.65-1.35-3-3-3z"></path>
</symbol>
<symbol id="icon-instagram" viewBox="0 0 32 32">
<title>instagram</title>
<path d="M16 2.881c4.275 0 4.781 0.019 6.462 0.094 1.563 0.069 2.406 0.331 2.969 0.55 0.744 0.288 1.281 0.638 1.837 1.194 0.563 0.563 0.906 1.094 1.2 1.838 0.219 0.563 0.481 1.412 0.55 2.969 0.075 1.688 0.094 2.194 0.094 6.463s-0.019 4.781-0.094 6.463c-0.069 1.563-0.331 2.406-0.55 2.969-0.288 0.744-0.637 1.281-1.194 1.837-0.563 0.563-1.094 0.906-1.837 1.2-0.563 0.219-1.413 0.481-2.969 0.55-1.688 0.075-2.194 0.094-6.463 0.094s-4.781-0.019-6.463-0.094c-1.563-0.069-2.406-0.331-2.969-0.55-0.744-0.288-1.281-0.637-1.838-1.194-0.563-0.563-0.906-1.094-1.2-1.837-0.219-0.563-0.481-1.413-0.55-2.969-0.075-1.688-0.094-2.194-0.094-6.463s0.019-4.781 0.094-6.463c0.069-1.563 0.331-2.406 0.55-2.969 0.288-0.744 0.638-1.281 1.194-1.838 0.563-0.563 1.094-0.906 1.838-1.2 0.563-0.219 1.412-0.481 2.969-0.55 1.681-0.075 2.188-0.094 6.463-0.094zM16 0c-4.344 0-4.887 0.019-6.594 0.094-1.7 0.075-2.869 0.35-3.881 0.744-1.056 0.412-1.95 0.956-2.837 1.85-0.894 0.888-1.438 1.781-1.85 2.831-0.394 1.019-0.669 2.181-0.744 3.881-0.075 1.713-0.094 2.256-0.094 6.6s0.019 4.887 0.094 6.594c0.075 1.7 0.35 2.869 0.744 3.881 0.413 1.056 0.956 1.95 1.85 2.837 0.887 0.887 1.781 1.438 2.831 1.844 1.019 0.394 2.181 0.669 3.881 0.744 1.706 0.075 2.25 0.094 6.594 0.094s4.888-0.019 6.594-0.094c1.7-0.075 2.869-0.35 3.881-0.744 1.050-0.406 1.944-0.956 2.831-1.844s1.438-1.781 1.844-2.831c0.394-1.019 0.669-2.181 0.744-3.881 0.075-1.706 0.094-2.25 0.094-6.594s-0.019-4.887-0.094-6.594c-0.075-1.7-0.35-2.869-0.744-3.881-0.394-1.063-0.938-1.956-1.831-2.844-0.887-0.887-1.781-1.438-2.831-1.844-1.019-0.394-2.181-0.669-3.881-0.744-1.712-0.081-2.256-0.1-6.6-0.1v0z"></path>
<path d="M16 7.781c-4.537 0-8.219 3.681-8.219 8.219s3.681 8.219 8.219 8.219 8.219-3.681 8.219-8.219c0-4.537-3.681-8.219-8.219-8.219zM16 21.331c-2.944 0-5.331-2.387-5.331-5.331s2.387-5.331 5.331-5.331c2.944 0 5.331 2.387 5.331 5.331s-2.387 5.331-5.331 5.331z"></path>
<path d="M26.462 7.456c0 1.060-0.859 1.919-1.919 1.919s-1.919-0.859-1.919-1.919c0-1.060 0.859-1.919 1.919-1.919s1.919 0.859 1.919 1.919z"></path>
</symbol>
<symbol id="icon-twitter" viewBox="0 0 32 32">
<title>twitter</title>
<path d="M32 7.075c-1.175 0.525-2.444 0.875-3.769 1.031 1.356-0.813 2.394-2.1 2.887-3.631-1.269 0.75-2.675 1.3-4.169 1.594-1.2-1.275-2.906-2.069-4.794-2.069-3.625 0-6.563 2.938-6.563 6.563 0 0.512 0.056 1.012 0.169 1.494-5.456-0.275-10.294-2.888-13.531-6.862-0.563 0.969-0.887 2.1-0.887 3.3 0 2.275 1.156 4.287 2.919 5.463-1.075-0.031-2.087-0.331-2.975-0.819 0 0.025 0 0.056 0 0.081 0 3.181 2.263 5.838 5.269 6.437-0.55 0.15-1.131 0.231-1.731 0.231-0.425 0-0.831-0.044-1.237-0.119 0.838 2.606 3.263 4.506 6.131 4.563-2.25 1.762-5.075 2.813-8.156 2.813-0.531 0-1.050-0.031-1.569-0.094 2.913 1.869 6.362 2.95 10.069 2.95 12.075 0 18.681-10.006 18.681-18.681 0-0.287-0.006-0.569-0.019-0.85 1.281-0.919 2.394-2.075 3.275-3.394z"></path>
</symbol>

<symbol id="icon-world" viewBox="0 0 392.362 392.362">
<title>world</title>
<g>
	<g>
		<path d="M74.832,334.417c-0.125-0.112-0.254-0.219-0.388-0.321c-4-3.32-8-6.88-11.68-10.56c-2.338-2.313-6.102-2.313-8.44,0
			c-2.34,2.343-2.34,6.137,0,8.48c4,4,8,7.72,12.48,11.32c2.463,2.217,6.257,2.017,8.474-0.446
			C77.494,340.427,77.295,336.634,74.832,334.417z"/>
	</g>
</g>
<g>
	<g>
		<path d="M12.038,156.534c-3.128-1.093-6.55,0.558-7.643,3.686c-0.162,0.464-0.267,0.947-0.311,1.436
			c-1.2,5.48-2.12,11.04-2.8,16.6c-0.428,3.252,1.834,6.245,5.08,6.72h0.76c3.037,0.002,5.596-2.265,5.96-5.28
			c0.64-5.2,1.52-10.44,2.64-15.52C16.817,161.048,15.166,157.626,12.038,156.534z"/>
	</g>
</g>
<g>
	<g>
		<path d="M45.004,302.616c-3.08-4.24-6-8.64-8.68-13.12c-1.694-2.848-5.376-3.784-8.224-2.09c-0.005,0.003-0.011,0.006-0.016,0.01
			c-2.848,1.694-3.784,5.376-2.09,8.224c0.003,0.005,0.006,0.011,0.01,0.016c2.88,4.8,6,9.52,9.32,14.04
			c2.047,2.606,5.819,3.058,8.425,1.011C46.228,308.759,46.777,305.224,45.004,302.616z"/>
	</g>
</g>
<g>
	<g>
		<path d="M24.084,264.776c-1.92-4.84-3.68-9.84-5.16-14.88c-0.923-3.182-4.252-5.014-7.434-4.091
			c-0.056,0.016-0.111,0.033-0.166,0.051c-3.149,0.962-4.934,4.283-4,7.44c1.6,5.36,3.44,10.72,5.52,16
			c1.248,3.104,4.776,4.608,7.88,3.36S25.332,267.88,24.084,264.776z"/>
	</g>
</g>
<g>
	<g>
		<path d="M27.664,115.396c-2.96-1.491-6.569-0.3-8.06,2.66c-2.52,5-4.84,10.16-6.88,15.4c-1.203,3.07,0.298,6.536,3.36,7.76
			c3.081,1.22,6.568-0.288,7.788-3.369c0.004-0.01,0.008-0.021,0.012-0.031c1.92-4.88,4-9.72,6.44-14.36
			C31.815,120.496,30.624,116.888,27.664,115.396z"/>
	</g>
</g>
<g>
	<g>
		<path d="M13.286,223.033c-0.001-0.005-0.001-0.011-0.002-0.016c-0.64-5.2-1.08-10.48-1.28-15.68
			c-0.121-3.314-2.906-5.901-6.22-5.78c-3.314,0.121-5.901,2.906-5.78,6.22c0,5.6,0.64,11.24,1.36,16.8
			c0.41,2.908,2.865,5.091,5.8,5.16h0.92C11.372,229.322,13.701,226.32,13.286,223.033z"/>
	</g>
</g>
<g>
	<g>
		<path d="M172.464,22.876c-0.32-3.314-3.266-5.74-6.58-5.42c-5.56,0.56-11.16,1.36-16.68,2.44c-3.314,0.309-5.749,3.246-5.44,6.56
			c0.309,3.314,3.246,5.749,6.56,5.44l-0.04-0.16h1.16c5.16-1,10.4-1.76,15.6-2.28C170.358,29.136,172.784,26.19,172.464,22.876z"/>
	</g>
</g>
<g>
	<g>
		<path d="M53.724,79.096c-2.496-2.209-6.311-1.976-8.52,0.52c-3.68,4.2-7.2,8.64-10.48,13.2c-1.944,2.683-1.345,6.435,1.339,8.379
			c1.019,0.738,2.243,1.137,3.501,1.141v0.08c1.931,0.007,3.747-0.916,4.88-2.48c3.08-4.24,6.36-8.4,9.8-12.32
			C56.453,85.12,56.22,81.306,53.724,79.096z"/>
	</g>
</g>
<g>
	<g>
		<path d="M212.004,18.456c-5.52-0.84-11.16-1.44-16.76-1.76c-3.314-0.199-6.161,2.326-6.36,5.64
			c-0.199,3.314,2.326,6.161,5.64,6.36c5.28,0.4,10.52,0.96,15.68,1.76h0.92c3.314,0.243,6.197-2.246,6.44-5.56
			C217.807,21.583,215.318,18.699,212.004,18.456z"/>
	</g>
</g>
<g>
	<g>
		<path d="M87.799,50.507c-1.877-2.549-5.411-3.202-8.075-1.491c-4.6,3.16-9.12,6.6-13.44,10.16c-2.552,2.121-2.901,5.908-0.78,8.46
			c2.121,2.552,5.908,2.901,8.46,0.78c4-3.36,8.24-6.56,12.56-9.52C89.193,56.932,89.763,53.176,87.799,50.507z"/>
	</g>
</g>
<g>
	<g>
		<g>
			<path d="M107.924,45.656c-0.02,0-0.039-0.004-0.059-0.004c-0.021,0-0.041,0.004-0.061,0.004H107.924z"/>
			<path d="M129.081,31.602c-0.877-3.195-4.179-5.075-7.375-4.197c-0.281,0.077-0.556,0.175-0.823,0.292
				c-5.24,1.92-10.48,4-15.52,6.52c-3.005,1.398-4.307,4.967-2.909,7.971c0.98,2.107,3.09,3.453,5.41,3.465
				c0.866-0.017,1.719-0.218,2.499-0.596c4.72-2.24,9.6-4.28,14.52-6.08C128.08,38.099,129.959,34.797,129.081,31.602z"/>
		</g>
	</g>
</g>
<g>
	<g>
		<path d="M201.624,378.676c-0.21-3.314-3.066-5.83-6.38-5.62c-5.24,0.4-10.52,0.52-15.76,0.36c-3.314-0.088-6.072,2.526-6.16,5.84
			s2.526,6.072,5.84,6.16h5.08c4,0,8,0,11.76-0.36C199.318,384.847,201.834,381.99,201.624,378.676z"/>
	</g>
</g>
<g>
	<g>
		<path d="M358.664,239.676c-3.214-0.817-6.483,1.126-7.3,4.34c-1.28,5.08-2.84,10.12-4.6,15.04c-1.043,3.09,0.573,6.448,3.64,7.56
			c3.119,1.119,6.555-0.503,7.674-3.622c0.002-0.006,0.004-0.012,0.006-0.018c1.88-5.28,3.52-10.68,4.92-16
			C363.822,243.762,361.878,240.494,358.664,239.676z"/>
	</g>
</g>
<g>
	<g>
		<path d="M366.324,170.976c-0.92-5.52-2.08-11.08-3.48-16.48c-0.958-3.172-4.307-4.967-7.479-4.008
			c-3.007,0.908-4.804,3.982-4.121,7.048c1.32,5.04,2.4,10.24,3.28,15.4c0.517,2.827,2.966,4.89,5.84,4.92h1
			C364.633,177.325,366.853,174.246,366.324,170.976z"/>
	</g>
</g>
<g>
	<g>
		<path d="M391.825,102.109c-0.282-0.613-0.668-1.172-1.141-1.652l-10.6-11.04c-1.518-1.516-3.749-2.07-5.8-1.44l-19.12,5.8
			l-22.4-23.76l50.28-28c2.93-1.349,4.211-4.818,2.861-7.747c-0.282-0.613-0.668-1.172-1.141-1.652l-14.12-14.12
			c-1.539-1.479-3.763-2.001-5.8-1.36l-63.72,19.28l-21.44-22.76c-5.464-6.318-14.359-8.429-22.08-5.24h-0.36
			c-5.821,2.396-10.444,7.019-12.84,12.84c-0.604,1.52-1.033,3.103-1.28,4.72l-2.44-0.84c-3.159-1.016-6.544,0.721-7.56,3.88
			c-1.016,3.159,0.721,6.544,3.88,7.56c3.08,1,6.16,2.12,9.24,3.28c0.927,1.45,2.014,2.792,3.24,4l22.6,21.44l-6.48,21.4
			c-63.378-45.209-151.405-30.48-196.614,32.898S38.51,271,101.888,316.209c63.378,45.209,151.405,30.48,196.614-32.898
			c36.052-50.541,34.794-118.718-3.098-167.894l10.24-18.48l23.76,22.4l-5.72,18.92c-0.689,2.079-0.147,4.369,1.4,5.92
			c0,0,11.72,11.6,12,12c2.771,1.606,6.32,0.662,7.927-2.109c0.025-0.043,0.05-0.087,0.073-0.131l15.64-28.68l28.24-15.4
			C391.894,108.507,393.175,105.038,391.825,102.109z M93.164,110.016c24.115-24.104,56.824-37.631,90.92-37.6
			c2.667,0,5.333,0.08,8,0.24c22.68,20.92,16,40,0.8,57.2c-8.97,9.513-18.593,18.388-28.8,26.56c-14.76,12.56-28.52,24.28-33.72,36
			c-6.16,13.92-1.64,26.52,23.24,37.52c12.44,5.52,19.2,9.8,21.84,13.04c0.039,0.047,0.077,0.08,0.116,0.109
			c-0.082,0.025-0.165,0.052-0.276,0.091c-6.024,2.294-12.436,3.394-18.88,3.24c-30.16,1.28-51.64-18-68.32-32.92
			c-12-10.68-21.96-19.56-32.32-19.64C57.476,162.257,70.795,132.401,93.164,110.016z M313.124,201.136h0.04
			c-0.018,55.75-35.857,105.176-88.84,122.52c-1.488-9.375,0.246-18.978,4.92-27.24c6.338-10.179,14.47-19.123,24-26.4
			c36.92-30.8,39-48,40.6-61.24c1-8.36,1.76-14.6,18.28-23.68C312.787,190.417,313.121,195.774,313.124,201.136z M305.684,157.856
			c1.788,5.036,3.257,10.18,4.4,15.4c-25.16,12.8-26.28,21.92-27.8,34.36c-1.36,11.2-3.12,25.84-36.48,53.68
			c-10.685,8.175-19.77,18.25-26.8,29.72c-6.129,10.834-8.253,23.478-6,35.72c-69.389,15.862-138.498-27.53-154.36-96.918
			c-1.814-7.936-2.872-16.026-3.16-24.162c6.36,0,14.6,7.56,24.72,16.56c18.32,16.36,41.76,37.24,76.68,36
			c8.228,0.142,16.397-1.41,24-4.56c3.205-1.417,5.631-4.164,6.64-7.52c0.852-3.743-0.229-7.664-2.88-10.44
			c-3.76-4.6-12-10.04-26.16-16.36c-16.92-7.48-20.6-14.76-17.28-22.2c4-9.36,16.88-20,30.56-32c10.66-8.615,20.698-17.971,30.04-28
			c16.72-19.04,25.32-39.8,8.32-62.52c18.893,3.862,36.669,11.944,52,23.64l-9.2,30.36c-0.679,2.08-0.139,4.365,1.4,5.92
			c0,0,14.92,14.8,15.4,15.08c2.771,1.606,6.32,0.662,7.927-2.109c0.025-0.043,0.049-0.087,0.073-0.131l11.64-21.04
			C296.235,136.038,301.727,146.646,305.684,157.856z M359.324,113.176l-5.16,2.56c-1.155,0.573-2.085,1.516-2.64,2.68l-2.56,5.2
			l-9.96,18l-2.92-3.2l5.8-19.16c0.676-2.245-0.066-4.675-1.88-6.16l-31.56-29.72c-2.285-2.245-5.957-2.212-8.202,0.073
			c-0.054,0.055-0.106,0.11-0.158,0.167c-0.4,0.44-28.8,51.6-28.8,51.6l-6.2-6.2l19.36-63.8c0.694-2.257-0.05-4.709-1.88-6.2
			l-25.12-23.64c-2.78-2.355-3.704-6.246-2.28-9.6c1.276-2.906,3.606-5.221,6.52-6.48h0.2c3.313-1.279,7.072-0.315,9.36,2.4
			l24,25.36c1.507,1.618,3.803,2.239,5.92,1.6l64-19.32l6.2,6.2l-50.8,27.92c-2.812,1.534-3.848,5.058-2.313,7.869
			c0.024,0.044,0.048,0.087,0.073,0.131c0.24,0.44,30.84,33,30.84,33c1.516,1.604,3.811,2.209,5.92,1.56l19.24-5.8l3,3
			L359.324,113.176z"/>
	</g>
</g>
<g>
	<g>
		<path d="M343.87,281.844c-0.087-0.051-0.176-0.101-0.266-0.147c-2.867-1.499-6.406-0.455-8,2.36c-2.52,4.6-5.28,9.12-8.24,13.44
			c-1.911,2.717-1.257,6.469,1.46,8.38c2.717,1.911,6.469,1.257,8.38-1.46c3.12-4.64,6.08-9.48,8.8-14.36
			C347.683,287.199,346.727,283.522,343.87,281.844z"/>
	</g>
</g>
<g>
	<g>
		<path d="M362.844,194.256c-3.313-0.045-6.036,2.604-6.082,5.917c-0.001,0.081-0.001,0.162,0.002,0.243v0.68
			c0,5.24-0.24,10.52-0.72,15.76c-0.3,3.3,2.131,6.219,5.431,6.519c0.003,0,0.006,0.001,0.009,0.001h0.56
			c3.165,0.03,5.808-2.404,6.04-5.56c0.52-5.56,0.76-11.2,0.76-16.8v-0.8C368.822,196.918,366.142,194.256,362.844,194.256z"/>
	</g>
</g>
<g>
	<g>
		<path d="M152.164,370.416c-5.2-0.88-10.36-2-15.36-3.52c-3.126-1.099-6.551,0.544-7.651,3.67s0.544,6.551,3.67,7.651
			c0.229,0.081,0.464,0.147,0.701,0.2c5.36,1.52,10.88,2.84,16.4,4h1.12c3.314,0.309,6.251-2.126,6.56-5.44
			C157.913,373.663,155.478,370.726,152.164,370.416z"/>
	</g>
</g>
<g>
	<g>
		<path d="M245.001,368.593c-1.085-2.946-4.258-4.558-7.277-3.696v0.16c-4.96,1.64-10.08,3.04-15.16,4
			c-3.236,0.729-5.269,3.944-4.54,7.18c0.729,3.236,3.944,5.269,7.18,4.54c5.44-1.24,10.92-2.76,16.24-4.48
			C244.554,375.151,246.146,371.702,245.001,368.593z"/>
	</g>
</g>
<g>
	<g>
		<path d="M111.004,357.336c-4.76-2.36-9.44-4.92-13.96-7.48c-2.861-1.679-6.541-0.721-8.22,2.14
			c-1.679,2.861-0.721,6.541,2.14,8.22c4.84,2.84,9.84,5.48,14.92,8c3.004,1.414,6.586,0.124,8-2.88
			C115.298,362.332,114.009,358.75,111.004,357.336z"/>
	</g>
</g>
<g>
	<g>
		<path d="M318.379,318.74c-2.404-2.195-6.121-2.073-8.375,0.277h0.04c-3.6,4-7.4,7.52-11.28,11c-2.474,2.209-2.689,6.006-0.48,8.48
			c2.209,2.474,6.006,2.689,8.48,0.48c4-3.72,8.24-7.68,12-11.76C320.999,324.769,320.826,320.974,318.379,318.74z"/>
	</g>
</g>
<g>
	<g>
		<path d="M285.275,348.668c-1.7-2.844-5.384-3.771-8.229-2.071c-0.096,0.057-0.19,0.117-0.282,0.18v-0.16c-4.4,2.8-9,5.44-13.64,8
			c-2.949,1.513-4.113,5.131-2.6,8.08c1.513,2.949,5.131,4.113,8.08,2.6c4.96-2.56,9.88-5.4,14.6-8.4
			C286.048,355.196,286.976,351.512,285.275,348.668z"/>
	</g>
</g>
</symbol>

<symbol id="icon-bed" viewBox="0 0 480 480">
<title>bed</title>
<g>
	<g>
		<path d="M472,272h-8v-24c-0.021-15.886-9.44-30.254-24-36.608V88c-0.002-3.18-1.886-6.056-4.8-7.328
			c3.121-5.002,4.783-10.776,4.8-16.672c0-17.673-14.327-32-32-32c-17.673,0-32,14.327-32,32c0.033,5.634,1.569,11.157,4.448,16
			H99.552c2.879-4.843,4.415-10.366,4.448-16c0-17.673-14.327-32-32-32S40,46.327,40,64c0.017,5.896,1.679,11.67,4.8,16.672
			C41.886,81.944,40.002,84.82,40,88v123.392C25.44,217.746,16.021,232.114,16,248v24H8c-4.418,0-8,3.582-8,8v112
			c0,4.418,3.582,8,8,8h8v40c0,4.418,3.582,8,8,8h32c4.418,0,8-3.582,8-8v-40h352v40c0,4.418,3.582,8,8,8h32c4.418,0,8-3.582,8-8
			v-40h8c4.418,0,8-3.582,8-8V280C480,275.582,476.418,272,472,272z M408,48c8.837,0,16,7.163,16,16s-7.163,16-16,16
			s-16-7.163-16-16S399.163,48,408,48z M72,48c8.837,0,16,7.163,16,16s-7.163,16-16,16s-16-7.163-16-16S63.163,48,72,48z M56,96h368
			v112h-32.208c5.294-6.883,8.179-15.316,8.208-24v-16c-0.026-22.08-17.92-39.974-40-40h-64c-22.08,0.026-39.974,17.92-40,40v16
			c0.029,8.684,2.914,17.117,8.208,24h-48.416c5.294-6.883,8.179-15.316,8.208-24v-16c-0.026-22.08-17.92-39.974-40-40h-64
			c-22.08,0.026-39.974,17.92-40,40v16c0.029,8.684,2.914,17.117,8.208,24H56V96z M384,168v16c0,13.255-10.745,24-24,24h-64
			c-13.255,0-24-10.745-24-24v-16c0-13.255,10.745-24,24-24h64C373.255,144,384,154.745,384,168z M208,168v16
			c0,13.255-10.745,24-24,24h-64c-13.255,0-24-10.745-24-24v-16c0-13.255,10.745-24,24-24h64C197.255,144,208,154.745,208,168z
			 M32,248c0-13.255,10.745-24,24-24h368c13.255,0,24,10.745,24,24v24H32V248z M48,432H32v-32h16V432z M448,432h-16v-32h16V432z
			 M464,384H16v-96h448V384z"/>
	</g>
</g>
<g>
	<g>
		<path d="M72,352H40c-4.418,0-8,3.582-8,8s3.582,8,8,8h32c4.418,0,8-3.582,8-8S76.418,352,72,352z"/>
	</g>
</g>
<g>
	<g>
		<path d="M440,352H104c-4.418,0-8,3.582-8,8s3.582,8,8,8h336c4.418,0,8-3.582,8-8S444.418,352,440,352z"/>
	</g>
</symbol>



</defs>
</svg>
