<svg height="512pt" viewBox="0 0 512 512" width="512pt" xmlns="http://www.w3.org/2000/svg"><path d="M504.313 129.09c-.06-.031-170.399-63.98-170.465-64.008 15.699-35.477-17.25-74.207-55.344-63.164-4.024 1.172-6.336 5.375-5.164 9.395a7.571 7.571 0 0 0 9.387 5.164c19.91-5.801 39.898 9.218 39.898 29.945 0 31.14-40.05 42.504-57.016 17.46-6.785-10.01-6.953-22.683-1.453-32.573 2.031-3.66.707-8.266-2.953-10.305-3.656-2.031-8.273-.707-10.305 2.95-11.515 20.737-5.52 47.296 14.711 60.933v39.664a7.58 7.58 0 0 0 7.579 7.578 7.575 7.575 0 0 0 7.578-7.578V91.523c7.21 1.727 15.246 1.72 22.964-.414V316.57c-3.308 0-15.32-.023-22.964-.023V154.863a7.57 7.57 0 0 0-7.579-7.578 7.575 7.575 0 0 0-7.578 7.578v161.684c-13.718 0-26.015 2.379-38.918 9.773-3.375-6.71-10.324-11.328-18.336-11.328H170.75c-11.309 0-20.512 9.195-20.512 20.5v12.125H22.832C10.234 347.617 0 357.863 0 370.45v92.043c0 12.602 10.234 22.836 22.832 22.836h127.406v6.16c0 11.309 9.203 20.512 20.512 20.512h37.605c6.88 0 12.98-3.406 16.7-8.629 17.816 9.07 17.789 7.063 145.562 7.063 22.559 0 33.434-27.606 17.953-43.332 9.668-9.82 9.684-25.926.04-35.766 9.636-9.856 9.624-25.918 0-35.738 14.663-14.961 5.648-40.848-15.227-43.141 3.437-15.234-9.746-35.887-31.25-35.887h-23.246v-96.883l61.972-23.269a7.555 7.555 0 0 0 4.426-9.75c-1.465-3.918-5.84-5.898-9.75-4.434L318.887 203.5V83.746a47.22 47.22 0 0 0 6.383-5.691l163.878 61.523-85.242 32.008a7.575 7.575 0 0 0-4.426 9.758c1.465 3.91 5.84 5.902 9.762 4.426.117-.043 94.95-35.641 95.063-35.696 9.496-3.734 9.523-17.215.007-20.984zM150.238 470.172H22.832c-4.23 0-7.676-3.445-7.676-7.68V370.45c0-4.23 3.446-7.676 7.676-7.676h127.406zm62.176 24.785c-2.102 2.52-.727 1.887-41.664 1.887a5.361 5.361 0 0 1-5.355-5.356V335.492c0-2.949 2.402-5.344 5.355-5.344h37.605c2.704 0 5.352 2.16 5.352 5.606 0 168.492.559 157.05-1.293 159.203zm16.45-6.789v-38.113a102.77 102.77 0 0 0 36.745-13.496c0 54.093-.316 53.16.91 58.718-12.851 0-23.96 1.118-37.656-7.109zm61.347 7.11h-7.7c-2.327-4.208-1.745-4.665-1.745-69.844a102.807 102.807 0 0 0 7.707-7.567 25.116 25.116 0 0 0 6.851 13.469c-9.754 9.93-9.52 26.074.04 35.766-7.626 7.73-9.098 19.128-5.153 28.175zm80.406 0H313.32c-7 0-11.652-6.88-9.59-13.497 1.274-4.094 5.094-7.062 9.59-7.062h57.297c5.535 0 10.04 4.504 10.04 10.043 0 6.511-4.852 10.515-10.04 10.515zm-1.406-35.794h-55.89c-6.895 0-11.696-6.761-9.59-13.511 1.273-4.09 5.093-7.063 9.59-7.063h57.296c12.711 0 14.547 20.574-1.406 20.574zm-65.934-46.265c0-5.512 4.48-10.043 10.043-10.043h57.297c5.137 0 10.04 3.949 10.04 10.52 0 5.546-4.505 10.05-10.04 10.05H313.32c-5.14 0-10.043-3.941-10.043-10.527zm67.34-45.758c5.137 0 10.04 3.95 10.04 10.516 0 5.539-4.505 10.043-10.04 10.043-62.57 0-59.168.515-62.379-1.383a10.05 10.05 0 0 1-4.508-5.657v-6.457c2.524-8.105 10.79-7.062 15.157-7.062zm-28.484-35.738c15.742 0 21.035 20.57 12.558 20.57h-7.91c.133 0 .262 0 .383.012-37.148 0-38.828-.782-45.789 3.02-12.426 6.671-16.36 21.831-10.809 33.472-12.421 23.754-35.226 40.82-61.703 45.871v-91.73c9.73-7.063 21.684-11.235 34.586-11.235 28.38 0 78.547.02 78.684.02zm0 0"/></svg>